<?xml version="1.0" encoding="utf-8"?>
<!-- Generator: Adobe Illustrator 23.0.5, SVG Export Plug-In . SVG Version: 6.00 Build 0)  -->
<svg version="1.1" id="color" xmlns="http://www.w3.org/2000/svg" xmlns:xlink="http://www.w3.org/1999/xlink" x="0px" y="0px"
	 viewBox="0 0 512 512" style="enable-background:new 0 0 512 512;" xml:space="preserve">
<style type="text/css">
	.st0{fill:none;stroke:#000000;stroke-width:30;stroke-linecap:round;stroke-miterlimit:10;enable-background:new    ;}
	.st1{fill:#020202;stroke:#000000;stroke-width:30;stroke-miterlimit:10;enable-background:new    ;}
</style>
<path class="st0" d="M485.4,214.2L381.1,321.1l24.5,151.4c2.2,12.1-10.9,20.9-21.4,15.2L256,416.6V22.5c5.4,0,10.9,2.5,13.2,7.8
	l64.4,137.3L477,189.4C489,191.6,493.5,205.7,485.4,214.2L485.4,214.2z"/>
<path class="st1" d="M256,22.5v394.1l-128.2,71.1c-10.3,5.8-23.6-3-21.4-15.2l24.5-151.4L26.6,214.2c-8-8.5-3.6-22.6,8.4-24.7
	l143.4-21.8l64.4-137.3C245.1,25,250.6,22.5,256,22.5L256,22.5z"/>
</svg>
